<mxfile host="app.diagrams.net" modified="2023-06-11T09:42:10.656Z" agent="Mozilla/5.0 (Windows NT 10.0; Win64; x64) AppleWebKit/537.36 (KHTML, like Gecko) Chrome/114.0.0.0 Safari/537.36" etag="yuTToi0tjNN0EAKeLwi2" version="21.3.8" type="device">
  <diagram name="Página-1" id="9EWYwgP3peBmEu95jZ-W">
    <mxGraphModel dx="1050" dy="541" grid="1" gridSize="10" guides="1" tooltips="1" connect="1" arrows="1" fold="1" page="1" pageScale="1" pageWidth="827" pageHeight="1169" math="0" shadow="0">
      <root>
        <mxCell id="0" />
        <mxCell id="1" parent="0" />
        <mxCell id="VpK3ubIXsTgA-vOJoo32-3" value="pedidos" style="swimlane;childLayout=stackLayout;horizontal=1;startSize=30;horizontalStack=0;rounded=1;fontSize=14;fontStyle=0;strokeWidth=2;resizeParent=0;resizeLast=1;shadow=0;dashed=0;align=center;" parent="1" vertex="1">
          <mxGeometry x="600" y="200" width="200" height="210" as="geometry" />
        </mxCell>
        <mxCell id="VpK3ubIXsTgA-vOJoo32-4" value="id_pedido: ObjectID&#xa;fecha_hora_pedido: Date()&#xa;tipo_entrega: Enum&#xa;producto_entrega: [{&#xa;            producto_id: ObjectID()&#xa;            cantidad: Integer&#xa;            }]&#xa;tienda_id: ObjectID()&#xa;empleado_id: ObjectID()&#xa;cliente_id: ObjectID()&#xa;precio_total: Integer&#xa;" style="align=left;strokeColor=none;fillColor=none;spacingLeft=4;fontSize=12;verticalAlign=top;resizable=0;rotatable=0;part=1;" parent="VpK3ubIXsTgA-vOJoo32-3" vertex="1">
          <mxGeometry y="30" width="200" height="180" as="geometry" />
        </mxCell>
        <mxCell id="VpK3ubIXsTgA-vOJoo32-9" value="productos" style="swimlane;childLayout=stackLayout;horizontal=1;startSize=30;horizontalStack=0;rounded=1;fontSize=14;fontStyle=0;strokeWidth=2;resizeParent=0;resizeLast=1;shadow=0;dashed=0;align=center;" parent="1" vertex="1">
          <mxGeometry x="320" y="120" width="200" height="150" as="geometry" />
        </mxCell>
        <mxCell id="VpK3ubIXsTgA-vOJoo32-10" value="id_producto: ObjectID()&#xa;nombre: String&#xa;descripcion: Text&#xa;imagen: BinData()&#xa;precio: Integer&#xa;categoria: String&#xa;tipo_producto: String" style="align=left;strokeColor=none;fillColor=none;spacingLeft=4;fontSize=12;verticalAlign=top;resizable=0;rotatable=0;part=1;" parent="VpK3ubIXsTgA-vOJoo32-9" vertex="1">
          <mxGeometry y="30" width="200" height="120" as="geometry" />
        </mxCell>
        <mxCell id="VpK3ubIXsTgA-vOJoo32-14" value="tiendas" style="swimlane;childLayout=stackLayout;horizontal=1;startSize=30;horizontalStack=0;rounded=1;fontSize=14;fontStyle=0;strokeWidth=2;resizeParent=0;resizeLast=1;shadow=0;dashed=0;align=center;" parent="1" vertex="1">
          <mxGeometry x="40" y="360" width="190" height="180" as="geometry" />
        </mxCell>
        <mxCell id="VpK3ubIXsTgA-vOJoo32-15" value="id_tienda: ObjectID()&#xa;direccion: [{&#xa;            calle: String&#xa;            codigo_postal: Integer&#xa;            ciudad: String&#xa;            localidad: String&#xa;            provincia: String&#xa;            pais: String&#xa;}] &#xa;" style="align=left;strokeColor=none;fillColor=none;spacingLeft=4;fontSize=12;verticalAlign=top;resizable=0;rotatable=0;part=1;" parent="VpK3ubIXsTgA-vOJoo32-14" vertex="1">
          <mxGeometry y="30" width="190" height="150" as="geometry" />
        </mxCell>
        <mxCell id="VpK3ubIXsTgA-vOJoo32-17" value="empleados" style="swimlane;childLayout=stackLayout;horizontal=1;startSize=30;horizontalStack=0;rounded=1;fontSize=14;fontStyle=0;strokeWidth=2;resizeParent=0;resizeLast=1;shadow=0;dashed=0;align=center;" parent="1" vertex="1">
          <mxGeometry x="320" y="360" width="200" height="150" as="geometry" />
        </mxCell>
        <mxCell id="VpK3ubIXsTgA-vOJoo32-18" value="id_empleado: ObjectID()&#xa;nombre: String,&#xa;apellidos: String&#xa;nif: String&#xa;telefono: Integer&#xa;tipo_empleado: ENUM&#xa;tienda_id: ObjectID()" style="align=left;strokeColor=none;fillColor=none;spacingLeft=4;fontSize=12;verticalAlign=top;resizable=0;rotatable=0;part=1;" parent="VpK3ubIXsTgA-vOJoo32-17" vertex="1">
          <mxGeometry y="30" width="200" height="120" as="geometry" />
        </mxCell>
        <mxCell id="VpK3ubIXsTgA-vOJoo32-34" value="clientes" style="swimlane;childLayout=stackLayout;horizontal=1;startSize=30;horizontalStack=0;rounded=1;fontSize=14;fontStyle=0;strokeWidth=2;resizeParent=0;resizeLast=1;shadow=0;dashed=0;align=center;" parent="1" vertex="1">
          <mxGeometry x="40" y="80" width="200" height="220" as="geometry" />
        </mxCell>
        <mxCell id="VpK3ubIXsTgA-vOJoo32-35" value="id_cliente: ObjectID()&#xa;nombre: String&#xa;apellidos: String&#xa;direccion: [{&#xa;            calle: String&#xa;            codigo_postal: integer&#xa;            ciudad: String&#xa;            localidad: String&#xa;            provincia: String&#xa;            pais: String&#xa;}]&#xa;telefono: Integer" style="align=left;strokeColor=none;fillColor=none;spacingLeft=4;fontSize=12;verticalAlign=top;resizable=0;rotatable=0;part=1;" parent="VpK3ubIXsTgA-vOJoo32-34" vertex="1">
          <mxGeometry y="30" width="200" height="190" as="geometry" />
        </mxCell>
        <mxCell id="0Wu0GEuB9DpQR-US-usW-3" value="Pizzeria" style="text;strokeColor=none;align=center;fillColor=none;html=1;verticalAlign=middle;whiteSpace=wrap;rounded=0;" vertex="1" parent="1">
          <mxGeometry x="360" y="10" width="60" height="40" as="geometry" />
        </mxCell>
      </root>
    </mxGraphModel>
  </diagram>
</mxfile>
